<?xml version="1.0" encoding="UTF-8" standalone="no"?>
<svg
   width="92px"
   height="28px"
   viewBox="0 0 92 28"
   version="1.1"
   id="svg27"
   sodipodi:docname="logo.svg"
   inkscape:version="1.1.2 (b8e25be833, 2022-02-05)"
   xmlns:inkscape="http://www.inkscape.org/namespaces/inkscape"
   xmlns:sodipodi="http://sodipodi.sourceforge.net/DTD/sodipodi-0.dtd"
   xmlns="http://www.w3.org/2000/svg"
   xmlns:svg="http://www.w3.org/2000/svg"
   xmlns:rdf="http://www.w3.org/1999/02/22-rdf-syntax-ns#"
   xmlns:cc="http://creativecommons.org/ns#"
   xmlns:dc="http://purl.org/dc/elements/1.1/">
  <defs
     id="defs31" />
  <sodipodi:namedview
     id="namedview29"
     pagecolor="#ffffff"
     bordercolor="#666666"
     borderopacity="1.0"
     inkscape:pageshadow="2"
     inkscape:pageopacity="0.0"
     inkscape:pagecheckerboard="0"
     showgrid="false"
     inkscape:zoom="10.826087"
     inkscape:cx="48.540161"
     inkscape:cy="13.993976"
     inkscape:window-width="1600"
     inkscape:window-height="838"
     inkscape:window-x="-8"
     inkscape:window-y="-8"
     inkscape:window-maximized="1"
     inkscape:current-layer="svg27" />
  <!-- Generator: Sketch 58 (84663) - https://sketch.com -->
  <title
     id="title21">Artboard</title>
  <desc
     id="desc23">Created with Sketch.</desc>
  <g
     id="Artboard"
     stroke="none"
     stroke-width="1"
     fill="none"
     fill-rule="evenodd">
    <path
       id="Reked"
       d="m 44.220703,1.4003906 -5.521484,0.6601563 v 1.6191406 l 2.160156,0.390625 V 23.929688 l -1.740234,0.269531 V 26 h 7.830078 V 24.199219 L 45.060547,23.929688 V 21.859375 L 45,20.330078 l 2.699219,-2.730469 3.419922,6.330079 -1.529297,0.269531 V 26 h 7.919922 v -1.800781 l -1.650391,-0.238281 -5.25,-8.970704 3.691406,-3.541015 2.429688,-0.388672 V 9.3496094 h -7.830078 v 1.7109376 l 2.21875,0.330078 L 45,17.810547 45.089844,16.220703 V 1.9707031 L 44.279297,1.4003906 Z m 44.669922,0 L 82.710938,2 v 1.6503906 l 2.939453,0.4199219 V 9.140625 C 84.970387,8.9806242 84.250238,8.9003906 83.490234,8.9003906 c -1.880009,0 -3.490071,0.4104647 -4.830078,1.2304684 -1.340006,0.820004 -2.354918,1.924447 -3.044922,3.314453 -0.690003,1.390008 -1.035156,2.925461 -1.035156,4.605469 0,1.86001 0.289138,3.408432 0.869141,4.648438 0.580003,1.240006 1.359839,2.156091 2.339843,2.746093 0.980005,0.590003 2.090072,0.884766 3.330079,0.884766 1.000005,0 1.951558,-0.225779 2.851562,-0.675781 0.900005,-0.450002 1.608906,-1.024606 2.128906,-1.724609 v 0.839843 c 0,0.620003 0.136249,1.036093 0.40625,1.246094 0.270002,0.210001 0.723278,0.314453 1.363282,0.314453 0.940004,0 2.130305,-0.149217 3.570312,-0.449219 V 24.169922 H 89.820312 V 2.0292969 L 88.980469,1.4003906 Z M 10.529297,3.5 c -0.6800035,0 -1.5400731,0.03914 -2.5800782,0.1191406 -0.1200007,0.01 -0.2664067,0.02125 -0.4414063,0.03125 L 7.0644531,3.671875 c 0.087004,0.1408967 0.1154253,0.3548963 0.023437,0.6308594 -0.03079,0.092369 -0.066773,0.1832482 -0.091797,0.2773437 C 6.8994948,4.9433208 6.9361651,4.8868406 6.875,5.203125 6.8032357,5.5742175 6.7140851,5.9394208 6.6425781,6.3105469 c -0.010836,0.065332 -0.029134,0.1311657 -0.033203,0.1972656 -0.011232,0.1824815 0.012002,0.2260108 0.021484,0.3925781 0.021157,0.3716327 0.029115,0.7412103 0.029297,1.1132813 -0.00149,0.06383 -0.021604,0.1295305 -0.00586,0.1914062 0.019816,0.077875 0.074007,0.1446425 0.109375,0.2167969 0.2227169,0.4543678 0.4991109,0.8549098 0.8007812,1.2597656 0.063147,0.080367 0.1115694,0.1740488 0.1894531,0.2402344 0.056568,0.048072 0.1247358,0.08894 0.1953126,0.126953 V 5.5097656 c 0.051429,0 0.1274955,-0.00449 0.2285156,-0.013672 L 8.9179688,5.4121094 C 9.26658,5.3773871 9.673956,5.359375 10.140625,5.359375 c 1.540008,0 2.623903,0.3507777 3.253906,1.0507812 0.630003,0.7000036 0.945313,1.7802271 0.945313,3.2402344 0,1.0026954 -0.133812,1.8331294 -0.373047,2.5292974 0.323181,0.04992 0.645976,0.104094 0.96875,0.15625 0.160524,0.02594 0.320855,0.05978 0.482422,0.07812 0.123319,0.014 0.247137,0.01138 0.371093,0.01758 0.339433,-0.04681 0.681029,-0.06636 1.023438,-0.06836 0.09734,-6e-4 0.193846,0.0096 0.291016,0.0039 0.08618,-0.0051 0.172312,-0.02317 0.257812,-0.03516 0.24561,-0.04235 0.476346,-0.163122 0.728516,-0.169922 0.0647,-0.0017 0.152729,-0.0328 0.193359,0.01758 0.04609,0.05715 0.08435,0.118893 0.119141,0.183593 0.41215,-0.918497 0.617187,-1.893933 0.617187,-2.9238279 0,-1.400007 -0.279841,-2.5286676 -0.839843,-3.3886719 C 17.619685,5.190777 16.720475,4.5508615 15.480469,4.1308594 14.240463,3.7108573 12.589307,3.5 10.529297,3.5 Z M 6.3808594,3.6933594 C 6.1299588,3.7002644 5.8639071,3.7109375 5.640625,3.7109375 H 1.2890625 v 1.828125 l 2.25,0.421875 V 23.900391 L 1.1699219,24.199219 V 26 H 10.710938 V 24.199219 L 7.9492188,23.900391 v -7.5 h 3.0898432 c 0.540003,0.220001 1.051248,0.788979 1.53125,1.708984 0.400002,0.766671 0.861719,1.784113 1.386719,3.050781 l 0.69336,1.699219 c 0.393491,0.943787 0.724908,1.666013 0.99414,2.166016 C 15.994533,25.675394 16.330389,26 16.650391,26 H 21.75 v -1.769531 l -0.990234,-0.300781 c -0.260002,-0.06 -0.524921,-0.304373 -0.794922,-0.734376 -0.196365,-0.312728 -0.453468,-0.771363 -0.771485,-1.375 l -0.382812,-0.740234 c -0.700004,-1.440007 -1.360466,-2.609761 -1.980469,-3.509766 -0.620003,-0.900004 -1.330855,-1.519373 -2.130859,-1.859374 1.237429,-0.388907 2.20202,-1.085716 2.923828,-2.052735 -1.22e-4,-0.117685 0.0011,-0.234835 0.01172,-0.351562 0.003,-0.03286 0.0099,-0.06489 0.01367,-0.09766 -0.04261,0.0095 -0.07641,0.01737 -0.175782,0.03906 -0.127404,0.01427 -0.25289,0.03527 -0.380859,0.04297 -0.08813,0.0053 -0.177335,-0.0039 -0.265625,-0.0039 -0.365248,4e-5 -0.723945,0.04152 -1.087891,0.06836 -0.155932,-0.0097 -0.313505,-0.01174 -0.46875,-0.0293 -0.161018,-0.01821 -0.320498,-0.05227 -0.480469,-0.07813 -0.411411,-0.06648 -0.822035,-0.132824 -1.234374,-0.193359 -0.05924,0.09337 -0.107774,0.200523 -0.173829,0.285156 -0.640003,0.820004 -1.529916,1.230468 -2.669921,1.230468 H 9.6894531 c -0.7666705,0 -1.297353,-0.01324 -1.5917969,-0.04101 l -0.1484374,-0.01953 v -3.429688 c -0.00718,-0.0039 -0.014283,-0.0078 -0.021484,-0.01172 C 7.4914179,10.830959 7.4616539,10.875714 7.0273438,10.492188 6.944653,10.419165 6.8903356,10.319232 6.8222656,10.232422 6.3534998,9.6001511 5.9018245,8.9672142 5.7304688,8.1835938 5.7184106,8.1284369 5.7349281,8.0701149 5.7363281,8.0136719 5.7365091,7.6680332 5.7298455,7.3237698 5.7109375,6.9785156 5.6939445,6.668292 5.6726757,6.7263405 5.6992188,6.3554688 5.7045187,6.2814177 5.722118,6.2079876 5.734375,6.1347656 5.8049473,5.7716383 5.8945038,5.4139039 5.9648438,5.0507812 6.0454165,4.6348329 5.9861897,4.7844806 6.1191406,4.2871094 6.1442846,4.193046 6.1821006,4.1021356 6.2128906,4.0097656 6.2570387,3.8773213 6.3155119,3.7737981 6.3808594,3.6933594 Z M 30.779297,8.9003906 c -1.600008,0 -3.00851,0.3488247 -4.228516,1.0488282 -1.220006,0.7000032 -2.165934,1.7112432 -2.835937,3.0312502 -0.670004,1.320006 -1.003906,2.879678 -1.003906,4.679687 0,2.680014 0.643587,4.795696 1.933593,6.345703 1.290007,1.550008 3.254518,2.324219 5.894531,2.324219 1.240007,0 2.465776,-0.244372 3.675782,-0.734375 1.210006,-0.490002 2.084997,-1.025466 2.625,-1.605469 l -0.75,-1.65039 c -0.480003,0.360002 -1.13484,0.669686 -1.964844,0.929687 -0.830004,0.260002 -1.634059,0.390625 -2.414062,0.390625 -1.440008,0 -2.550075,-0.50562 -3.330079,-1.515625 -0.780004,-1.010005 -1.211015,-2.424131 -1.291015,-4.24414 h 9.75 c 0.160001,-0.640004 0.240234,-1.619447 0.240234,-2.939453 -0.04,-1.94001 -0.599682,-3.436323 -1.679687,-4.486329 C 34.320385,9.4246041 32.779307,8.9003906 30.779297,8.9003906 Z m 35.371094,0 c -1.600008,0 -3.010463,0.3488247 -4.230469,1.0488282 -1.220006,0.7000032 -2.163981,1.7112432 -2.833984,3.0312502 -0.670004,1.320006 -1.00586,2.879678 -1.00586,4.679687 0,2.680014 0.645541,4.795696 1.935547,6.345703 1.290006,1.550008 3.254518,2.324219 5.894531,2.324219 1.240006,0 2.465776,-0.244372 3.675782,-0.734375 1.210006,-0.490002 2.084997,-1.025466 2.625,-1.605469 l -0.75,-1.65039 c -0.480003,0.360002 -1.136793,0.669686 -1.966797,0.929687 -0.830005,0.260002 -1.634059,0.390625 -2.414063,0.390625 -1.440007,0 -2.550074,-0.50562 -3.330078,-1.515625 -0.780004,-1.010005 -1.209062,-2.424131 -1.289062,-4.24414 h 9.75 c 0.16,-0.640004 0.238281,-1.619447 0.238281,-2.939453 -0.04,-1.94001 -0.599682,-3.436323 -1.679688,-4.486329 -1.080005,-1.0500049 -2.61913,-1.5742184 -4.61914,-1.5742184 z m -35.88086,1.9199214 c 1.780009,0 2.669922,1.330222 2.669922,3.990235 0,0.214287 -0.0089,0.494858 -0.0293,0.841797 l -0.0293,0.447265 h -5.791015 c 0.06,-1.960009 0.360388,-3.329371 0.90039,-4.109375 0.540003,-0.780004 1.299292,-1.169922 2.279297,-1.169922 z m 35.371094,0 c 1.780009,0 2.669922,1.330222 2.669922,3.990235 0,0.171429 -0.0065,0.384299 -0.01953,0.640625 L 68.25,16.099609 h -5.789062 c 0.06,-1.960009 0.358434,-3.329371 0.898437,-4.109375 0.540003,-0.780004 1.301245,-1.169922 2.28125,-1.169922 z m 17.669922,0 c 0.520002,0 1.005076,0.06898 1.455078,0.208985 0.450002,0.140001 0.744765,0.309765 0.884766,0.509765 v 10.921876 c -0.300002,0.380001 -0.704842,0.704608 -1.214844,0.974609 -0.510003,0.270001 -1.095856,0.404297 -1.755859,0.404297 -1.080006,0 -1.949372,-0.49437 -2.609376,-1.484375 -0.660003,-0.990005 -0.990234,-2.504912 -0.990234,-4.544922 0,-2.440012 0.384293,-4.216166 1.154297,-5.326172 0.770004,-1.110005 1.796165,-1.664063 3.076172,-1.664063 z m -65.5625,1.667969 c 0.0036,-0.03045 -0.01639,0.05858 -0.02539,0.08789 0.0041,0.0056 0.0059,0.0101 0.0098,0.01563 0.0048,-0.0345 0.01151,-0.06894 0.01563,-0.103516 z" />
  </g>
  <text
     xml:space="preserve"
     style="font-style:normal;font-variant:normal;font-weight:normal;font-stretch:normal;font-size:32px;line-height:1.25;font-family:Georgia;-inkscape-font-specification:'Georgia, Normal';font-variant-ligatures:normal;font-variant-caps:normal;font-variant-numeric:normal;font-variant-east-asian:normal;fill:#000000;fill-opacity:1;stroke:none"
     x="1.939759"
     y="24.93976"
     id="text35105"><tspan
       sodipodi:role="line"
       id="tspan35103"
       x="1.939759"
       y="24.93976">Bunar</tspan></text>
  <metadata
     id="metadata45558">
    <rdf:RDF>
      <cc:Work
         rdf:about="">
        <dc:title>Artboard</dc:title>
      </cc:Work>
    </rdf:RDF>
  </metadata>
</svg>
